<svg xmlns="http://www.w3.org/2000/svg" width="845" height="259" fill="none" viewBox="0 0 845 259">
  <path fill="#1D8AED" d="M315.64 153.56c-3.44 0-6.68-.52-9.72-1.56-2.96-.96-5.12-2.04-6.48-3.24v-8.88c1.6 1.52 3.6 2.88 6 4.08 2.48 1.12 5.44 1.68 8.88 1.68 5.6 0 10.08-1.68 13.44-5.04 3.44-3.44 5.16-8.92 5.16-16.44 0-5.28-.88-9.44-2.64-12.48-1.68-3.12-3.96-5.36-6.84-6.72-2.8-1.36-5.84-2.04-9.12-2.04-2.88 0-5.32.36-7.32 1.08-2 .72-3.8 1.52-5.4 2.4v39.84H292v-39.6c0-1.6.28-2.88.84-3.84.56-.96 1.72-1.96 3.48-3 2.16-1.2 4.72-2.28 7.68-3.24 3.04-1.04 6.48-1.56 10.32-1.56 5.28 0 10.04 1.04 14.28 3.12 4.32 2 7.72 5.16 10.2 9.48 2.56 4.24 3.84 9.76 3.84 16.56 0 6.56-1.16 12.04-3.48 16.44-2.24 4.32-5.4 7.56-9.48 9.72-4.08 2.16-8.76 3.24-14.04 3.24Zm-18.48 20.88c-1.68 0-2.96-.36-3.84-1.08-.88-.72-1.32-1.84-1.32-3.36v-27.24l9.6.24v30.6c-.4.16-1 .32-1.8.48-.8.24-1.68.36-2.64.36Zm111.828-50.16c0 5.92-1.12 11.08-3.36 15.48-2.24 4.4-5.4 7.8-9.48 10.2-4.08 2.4-8.88 3.6-14.4 3.6s-10.36-1.2-14.52-3.6c-4.08-2.4-7.24-5.8-9.48-10.2-2.24-4.4-3.36-9.56-3.36-15.48 0-6 1.12-11.16 3.36-15.48 2.32-4.4 5.52-7.8 9.6-10.2 4.16-2.4 8.96-3.6 14.4-3.6 5.44 0 10.2 1.2 14.28 3.6 4.08 2.4 7.24 5.8 9.48 10.2 2.32 4.32 3.48 9.48 3.48 15.48Zm-27.24-21.36c-5.36 0-9.64 1.92-12.84 5.76-3.12 3.76-4.68 8.96-4.68 15.6 0 6.72 1.52 11.96 4.56 15.72 3.12 3.76 7.44 5.64 12.96 5.64 5.44 0 9.68-1.88 12.72-5.64 3.12-3.84 4.68-9.08 4.68-15.72 0-6.64-1.56-11.84-4.68-15.6-3.04-3.84-7.28-5.76-12.72-5.76Zm56.848 23.76-6-4.68 27.36-26.52c1.92.08 3.4.56 4.44 1.44 1.12.8 1.68 1.88 1.68 3.24 0 1.12-.36 2.12-1.08 3-.64.88-1.6 1.84-2.88 2.88l-23.52 20.64Zm-6.24-3.12 6.72-3.96 30.48 27.36c-.16 1.76-.72 3.16-1.68 4.2-.88 1.04-2.08 1.56-3.6 1.56-1.2 0-2.32-.32-3.36-.96-.96-.64-1.96-1.48-3-2.52l-25.56-25.68Zm-8.28-3.72 9.6 1.44v30.48c-.4.16-1 .32-1.8.48-.8.24-1.68.36-2.64.36-1.68 0-2.96-.32-3.84-.96-.88-.72-1.32-1.84-1.32-3.36v-28.44Zm9.6 6.12-9.6-1.44V74.24c.4-.16 1-.32 1.8-.48.88-.24 1.8-.36 2.76-.36 1.68 0 2.92.36 3.72 1.08.88.64 1.32 1.72 1.32 3.24v48.24Zm48.171-5.64h9.6v16.56c0 3.2.92 5.48 2.76 6.84 1.84 1.28 4.36 1.92 7.56 1.92 1.36 0 2.88-.24 4.56-.72 1.68-.48 3.08-1.04 4.2-1.68.48.48.92 1.08 1.32 1.8s.6 1.56.6 2.52c0 1.76-1.04 3.2-3.12 4.32s-4.96 1.68-8.64 1.68c-5.6 0-10.16-1.24-13.68-3.72-3.44-2.48-5.16-6.6-5.16-12.36v-17.16Zm4.92-14.64v-7.92h24.36c.24.32.48.84.72 1.56.24.72.36 1.48.36 2.28 0 1.28-.32 2.28-.96 3-.64.72-1.52 1.08-2.64 1.08h-21.84Zm4.68 18.24h-9.6V80.48c.4-.16 1-.32 1.8-.48.88-.24 1.8-.36 2.76-.36 1.68 0 2.92.36 3.72 1.08.88.64 1.32 1.72 1.32 3.24v39.96Z"/>
  <path fill="#000" d="M561.295 110.72c-1.44 5.04-3 10.08-4.68 15.12-1.6 5.04-3.16 9.76-4.68 14.16-1.52 4.4-2.92 8.2-4.2 11.4-.64.4-1.36.72-2.16.96s-1.88.36-3.24.36c-1.28 0-2.48-.24-3.6-.72-1.04-.4-1.76-1.08-2.16-2.04-.8-1.6-1.72-3.92-2.76-6.96-.96-3.04-2-6.52-3.12-10.44-1.04-3.92-2.12-7.96-3.24-12.12-1.12-4.24-2.16-8.32-3.12-12.24-.88-3.92-1.64-7.4-2.28-10.44.56-.56 1.24-1.08 2.04-1.56.88-.48 1.92-.72 3.12-.72 1.52 0 2.64.44 3.36 1.32.8.8 1.36 2.12 1.68 3.96.72 3.36 1.52 7.16 2.4 11.4.96 4.24 1.92 8.44 2.88 12.6 1.04 4.16 1.96 7.92 2.76 11.28.88 3.28 1.52 5.72 1.92 7.32h.48c.64-1.92 1.64-5.04 3-9.36 1.36-4.4 2.96-9.4 4.8-15 1.92-5.6 3.84-11.28 5.76-17.04.64-.4 1.4-.68 2.28-.84.88-.24 1.84-.36 2.88-.36 1.44 0 2.64.28 3.6.84.96.48 1.6 1.24 1.92 2.28 1.92 5.52 3.72 10.96 5.4 16.32 1.68 5.28 3.16 10 4.44 14.16 1.28 4.08 2.2 7.12 2.76 9.12h.6c1.84-7.12 3.84-14.76 6-22.92 2.16-8.16 3.92-16.16 5.28-24 1.12-.72 2.48-1.08 4.08-1.08 1.36 0 2.44.32 3.24.96.8.64 1.2 1.64 1.2 3 0 .88-.28 2.56-.84 5.04-.48 2.48-1.16 5.4-2.04 8.76-.88 3.36-1.88 6.96-3 10.8-1.04 3.76-2.12 7.44-3.24 11.04-1.12 3.52-2.2 6.72-3.24 9.6-.96 2.88-1.8 5.12-2.52 6.72-.4.32-1.08.6-2.04.84-.88.32-1.92.48-3.12.48-3.28 0-5.2-.76-5.76-2.28-1.12-2.88-2.4-6.44-3.84-10.68-1.44-4.32-2.92-8.96-4.44-13.92l-4.56-15.12Zm71.13 42.96c-7.52 0-13.36-1.48-17.52-4.44-4.08-2.96-6.12-7.24-6.12-12.84 0-5.2 1.72-9.16 5.16-11.88 3.52-2.8 8.36-4.48 14.52-5.04l17.04-1.68v-3.36c0-4-1.2-6.92-3.6-8.76-2.4-1.84-5.64-2.76-9.72-2.76-3.28 0-6.44.48-9.48 1.44-2.96.96-5.6 2.04-7.92 3.24-.64-.56-1.24-1.2-1.8-1.92-.48-.8-.72-1.6-.72-2.4 0-2.08 1.16-3.68 3.48-4.8 2.16-1.12 4.64-1.96 7.44-2.52 2.88-.64 5.92-.96 9.12-.96 6.96 0 12.48 1.56 16.56 4.68 4.08 3.12 6.12 8.04 6.12 14.76v28.44c0 1.76-.36 3.12-1.08 4.08-.64.88-1.64 1.72-3 2.52-1.92 1.04-4.48 2-7.68 2.88-3.2.88-6.8 1.32-10.8 1.32Zm0-7.92c3.36 0 6.12-.32 8.28-.96 2.24-.72 3.84-1.4 4.8-2.04v-17.4l-14.88 1.56c-4.16.32-7.24 1.24-9.24 2.76-2 1.52-3 3.72-3 6.6 0 2.96 1.16 5.28 3.48 6.96 2.4 1.68 5.92 2.52 10.56 2.52Zm40.203-25.44h9.6v16.56c0 3.2.92 5.48 2.76 6.84 1.84 1.28 4.36 1.92 7.56 1.92 1.36 0 2.88-.24 4.56-.72 1.68-.48 3.08-1.04 4.2-1.68.48.48.92 1.08 1.32 1.8s.6 1.56.6 2.52c0 1.76-1.04 3.2-3.12 4.32s-4.96 1.68-8.64 1.68c-5.6 0-10.16-1.24-13.68-3.72-3.44-2.48-5.16-6.6-5.16-12.36v-17.16Zm4.92-14.64v-7.92h24.36c.24.32.48.84.72 1.56.24.72.36 1.48.36 2.28 0 1.28-.32 2.28-.96 3-.64.72-1.52 1.08-2.64 1.08h-21.84Zm4.68 18.24h-9.6V80.48c.4-.16 1-.32 1.8-.48.88-.24 1.8-.36 2.76-.36 1.68 0 2.92.36 3.72 1.08.88.64 1.32 1.72 1.32 3.24v39.96Zm58.85-20.88c-5.44 0-9.96 1.84-13.56 5.52-3.6 3.68-5.4 8.96-5.4 15.84 0 6.8 1.72 12.04 5.16 15.72 3.52 3.68 8.12 5.52 13.8 5.52 3.36 0 6.16-.44 8.4-1.32 2.24-.96 4.24-2.04 6-3.24.88.48 1.6 1.08 2.16 1.8s.84 1.6.84 2.64c0 2.24-1.68 4.16-5.04 5.76-3.28 1.52-7.4 2.28-12.36 2.28-5.52 0-10.48-1.04-14.88-3.12-4.32-2.16-7.72-5.4-10.2-9.72-2.48-4.32-3.72-9.76-3.72-16.32 0-6.48 1.28-11.88 3.84-16.2 2.56-4.4 6-7.68 10.32-9.84 4.4-2.24 9.2-3.36 14.4-3.36 4.96 0 9.04.84 12.24 2.52 3.28 1.68 4.92 3.6 4.92 5.76 0 .96-.28 1.8-.84 2.52-.56.72-1.28 1.28-2.16 1.68-1.76-1.2-3.72-2.24-5.88-3.12-2.08-.88-4.76-1.32-8.04-1.32Zm79.745 25.08h-9.6v-11.04c0-4.8-1.36-8.36-4.08-10.68-2.64-2.32-6.08-3.48-10.32-3.48-3.12 0-6.04.6-8.76 1.8-2.64 1.2-4.88 2.64-6.72 4.32l-1.8-7.8c1.92-1.36 4.44-2.72 7.56-4.08 3.2-1.44 6.88-2.16 11.04-2.16 6.64 0 12.08 1.8 16.32 5.4 4.24 3.6 6.36 9.08 6.36 16.44v11.28Zm-47.88-7.8h9.6v31.44c-.4.16-1 .32-1.8.48-.8.24-1.68.36-2.64.36-1.68 0-2.96-.32-3.84-.96-.88-.72-1.32-1.84-1.32-3.36v-27.96Zm38.28.12 9.6.12v31.2c-.4.16-1.04.32-1.92.48-.8.24-1.64.36-2.52.36-1.76 0-3.08-.32-3.96-.96-.8-.72-1.2-1.84-1.2-3.36v-27.84Zm-28.68 4.56h-9.6V74.24c.4-.16 1-.32 1.8-.48.88-.24 1.8-.36 2.76-.36 1.68 0 2.92.36 3.72 1.08.88.64 1.32 1.72 1.32 3.24V125Z"/>
  <g filter="url(#a)">
    <circle cx="154" cy="122" r="92" fill="#000"/>
  </g>
  <path fill="url(#b)" d="M144.364 36.804c3.428-.358 6.266 2.458 6.208 5.904l-.242 14.256c-.032 1.93-1.558 3.49-3.477 3.691-33.42 3.488-57.685 33.407-54.198 66.827a60.642 60.642 0 0 0 7.598 23.745c1.179 2.071 3.608 3.028 5.933 2.503 4.118-.929 5.795-5.819 3.541-9.39-3.093-4.902-5.22-10.077-5.928-16.858-2.972-28.48 14.574-52.711 43.054-55.683l4.54-.659a10.858 10.858 0 0 0 9.299-10.746v-23.59c40.654 2.472 72.472 33.714 76.839 75.56 4.862 46.592-28.968 88.305-75.56 93.167-3.487.364-6.371-2.502-6.311-6.007l.238-14.044c.033-1.987 1.607-3.594 3.584-3.801 33.42-3.487 57.685-33.407 54.197-66.826-.897-8.595-3.541-16.583-7.544-23.65-1.164-2.055-3.442-3.172-5.798-3.026-5.293.33-8.026 6.493-5.278 11.029 3.151 5.203 5.652 10.909 6.271 16.843 2.457 23.543-9.761 42.652-30.704 51.024-4.128 1.723-4.848 2.097-9.482 2.709l-3.131.903c-6.749 0-12.221 5.472-12.221 12.222v22.624c-40.608-2.521-72.625-33.751-76.988-75.56-4.863-46.593 28.967-88.305 75.56-93.167Z"/>
  <path stroke="#000" stroke-linecap="round" stroke-width="6.5" d="m188.984 71.97-39.536 53.159"/>
  <g filter="url(#c)">
    <path stroke="#000" stroke-linecap="round" stroke-width="6.5" d="m129.76 116.472 29.208 4.488"/>
  </g>
  <defs>
    <filter id="a" width="332" height="332" x="-12" y="0" color-interpolation-filters="sRGB" filterUnits="userSpaceOnUse">
      <feFlood flood-opacity="0" result="BackgroundImageFix"/>
      <feColorMatrix in="SourceAlpha" result="hardAlpha" values="0 0 0 0 0 0 0 0 0 0 0 0 0 0 0 0 0 0 127 0"/>
      <feOffset dy="44"/>
      <feGaussianBlur stdDeviation="37"/>
      <feComposite in2="hardAlpha" operator="out"/>
      <feColorMatrix values="0 0 0 0 0 0 0 0 0 0 0 0 0 0 0 0 0 0 0.05 0"/>
      <feBlend in2="BackgroundImageFix" result="effect1_dropShadow_4_25"/>
      <feBlend in="SourceGraphic" in2="effect1_dropShadow_4_25" result="shape"/>
    </filter>
    <filter id="c" width="43.709" height="18.989" x="122.509" y="113.221" color-interpolation-filters="sRGB" filterUnits="userSpaceOnUse">
      <feFlood flood-opacity="0" result="BackgroundImageFix"/>
      <feColorMatrix in="SourceAlpha" result="hardAlpha" values="0 0 0 0 0 0 0 0 0 0 0 0 0 0 0 0 0 0 127 0"/>
      <feOffset dy="4"/>
      <feGaussianBlur stdDeviation="2"/>
      <feComposite in2="hardAlpha" operator="out"/>
      <feColorMatrix values="0 0 0 0 0 0 0 0 0 0 0 0 0 0 0 0 0 0 0.25 0"/>
      <feBlend in2="BackgroundImageFix" result="effect1_dropShadow_4_25"/>
      <feBlend in="SourceGraphic" in2="effect1_dropShadow_4_25" result="shape"/>
    </filter>
    <radialGradient id="b" cx="0" cy="0" r="1" gradientTransform="matrix(115.51415 125.21042 -93.71378 86.4566 95.639 41.888)" gradientUnits="userSpaceOnUse">
      <stop stop-color="#1D8AED"/>
      <stop offset="1" stop-color="#1D8AED"/>
    </radialGradient>
  </defs>
</svg>
