<svg xmlns="http://www.w3.org/2000/svg" width="320" height="320" fill="none" viewBox="0 0 320 320">

  <path fill="url(#b)" d="M150.931 36.237c3.207-.335 5.862 2.3 5.808 5.524l-.226 13.338c-.031 1.805-1.458 3.266-3.254 3.453-31.267 3.263-53.97 31.256-50.707 62.523a56.735 56.735 0 0 0 7.109 22.216c1.102 1.938 3.376 2.833 5.55 2.342 3.854-.87 5.422-5.444 3.314-8.785-2.895-4.587-4.885-9.428-5.547-15.773-2.78-26.646 13.636-49.316 40.281-52.097l4.248-.616a10.16 10.16 0 0 0 8.701-10.054V36.237c38.036 2.313 67.804 31.543 71.89 70.694 4.549 43.592-27.102 82.618-70.694 87.167-3.262.34-5.96-2.341-5.905-5.62l.223-13.14c.031-1.859 1.504-3.363 3.353-3.556 31.268-3.263 53.97-31.255 50.707-62.523a56.725 56.725 0 0 0-7.058-22.127c-1.089-1.922-3.22-2.967-5.425-2.83-4.952.308-7.509 6.074-4.938 10.318 2.949 4.868 5.288 10.207 5.868 15.759 2.298 22.026-9.133 39.905-28.727 47.737-3.863 1.612-4.536 1.963-8.872 2.535l-2.929.845c-6.315 0-11.434 5.12-11.434 11.435v21.167c-37.993-2.358-67.948-31.577-72.03-70.694-4.55-43.592 27.101-82.618 70.694-87.167Z"/>
  <path stroke="#000" stroke-linecap="round" stroke-width="6.5" d="m192.677 69.139-36.989 49.735"/>
  <g filter="url(#c)">
    <path stroke="#000" stroke-linecap="round" stroke-width="6.5" d="m137.267 110.774 27.328 4.199"/>
  </g>
  <defs>
    <filter id="a" width="320" height="320" x="0" y="0" color-interpolation-filters="sRGB" filterUnits="userSpaceOnUse">
      <feFlood flood-opacity="0" result="BackgroundImageFix"/>
      <feColorMatrix in="SourceAlpha" result="hardAlpha" values="0 0 0 0 0 0 0 0 0 0 0 0 0 0 0 0 0 0 127 0"/>
      <feOffset dy="44"/>
      <feGaussianBlur stdDeviation="37"/>
      <feComposite in2="hardAlpha" operator="out"/>
      <feColorMatrix values="0 0 0 0 0 0 0 0 0 0 0 0 0 0 0 0 0 0 0.05 0"/>
      <feBlend in2="BackgroundImageFix" result="effect1_dropShadow_4_34"/>
      <feBlend in="SourceGraphic" in2="effect1_dropShadow_4_34" result="shape"/>
    </filter>
    <filter id="c" width="41.828" height="18.7" x="130.017" y="107.524" color-interpolation-filters="sRGB" filterUnits="userSpaceOnUse">
      <feFlood flood-opacity="0" result="BackgroundImageFix"/>
      <feColorMatrix in="SourceAlpha" result="hardAlpha" values="0 0 0 0 0 0 0 0 0 0 0 0 0 0 0 0 0 0 127 0"/>
      <feOffset dy="4"/>
      <feGaussianBlur stdDeviation="2"/>
      <feComposite in2="hardAlpha" operator="out"/>
      <feColorMatrix values="0 0 0 0 0 0 0 0 0 0 0 0 0 0 0 0 0 0 0.25 0"/>
      <feBlend in2="BackgroundImageFix" result="effect1_dropShadow_4_34"/>
      <feBlend in="SourceGraphic" in2="effect1_dropShadow_4_34" result="shape"/>
    </filter>
    <radialGradient id="b" cx="0" cy="0" r="1" gradientTransform="matrix(108.07499 117.14681 -87.67802 80.88825 105.344 40.994)" gradientUnits="userSpaceOnUse">
      <stop stop-color="#1D8AED"/>
      <stop offset="1" stop-color="#1D8AED"/>
    </radialGradient>
  </defs>
</svg>
